<svg xmlns="http://www.w3.org/2000/svg" version="1.1" xmlns:xlink="http://www.w3.org/1999/xlink" xmlns:svgjs="http://svgjs.dev/svgjs" width="1440" height="1440" preserveAspectRatio="none" viewBox="0 0 1440 1440"><g mask="url(&quot;#SvgjsMask1065&quot;)" fill="none"><rect width="1440" height="1440" x="0" y="0" fill="rgba(61, 118, 255, 1)"></rect><path d="M 0,76 C 96,91.4 288,165.8 480,153 C 672,140.2 768,19 960,12 C 1152,5 1344,96.8 1440,118L1440 1440L0 1440z" fill="rgba(100, 128, 221, 1)"></path><path d="M 0,207 C 96,225.6 288,296.2 480,300 C 672,303.8 768,226 960,226 C 1152,226 1344,285.2 1440,300L1440 1440L0 1440z" fill="rgba(139, 137, 186, 1)"></path><path d="M 0,419 C 96,406.8 288,353 480,358 C 672,363 768,444 960,444 C 1152,444 1344,375.2 1440,358L1440 1440L0 1440z" fill="rgba(177, 147, 152, 1)"></path><path d="M 0,502 C 96,526.4 288,620.6 480,624 C 672,627.4 768,520.4 960,519 C 1152,517.6 1344,597.4 1440,617L1440 1440L0 1440z" fill="rgba(216, 156, 117, 1)"></path><path d="M 0,659 C 96,684.8 288,782 480,788 C 672,794 768,701 960,689 C 1152,677 1344,720.2 1440,728L1440 1440L0 1440z" fill="rgba(255, 166, 83, 1)"></path><path d="M 0,903 C 96,890.2 288,835 480,839 C 672,843 768,916.6 960,923 C 1152,929.4 1344,881.4 1440,871L1440 1440L0 1440z" fill="rgba(255, 135, 86, 1)"></path><path d="M 0,980 C 96,994 288,1043.6 480,1050 C 672,1056.4 768,1006.2 960,1012 C 1152,1017.8 1344,1065.6 1440,1079L1440 1440L0 1440z" fill="rgba(255, 103, 88, 1)"></path><path d="M 0,1231 C 144,1216 432,1158.4 720,1156 C 1008,1153.6 1296,1206.4 1440,1219L1440 1440L0 1440z" fill="rgba(255, 72, 91, 1)"></path><path d="M 0,1404 C 96,1381.4 288,1296.8 480,1291 C 672,1285.2 768,1377.2 960,1375 C 1152,1372.8 1344,1299 1440,1280L1440 1440L0 1440z" fill="rgba(255, 40, 93, 1)"></path></g><defs><mask id="SvgjsMask1065"><rect width="1440" height="1440" fill="#ffffff"></rect></mask></defs></svg>